<svg xmlns="http://www.w3.org/2000/svg" style="flex:none;line-height:1" width="1em" height="1em" viewBox="0 0 24 24"><title>AzureAI</title><path fill="url(#lobe-icons-azure-ai-fill-0)" fill-rule="evenodd" d="M16.233 0c.713 0 1.345.551 1.572 1.329.227.778 1.555 5.59 1.555 5.59v9.562h-4.813L14.645 0h1.588z" clip-rule="evenodd"/><path fill="url(#lobe-icons-azure-ai-fill-1)" d="M23.298 7.47c0-.34-.275-.6-.6-.6h-2.835a3.617 3.617 0 00-3.614 3.615v5.996h3.436a3.617 3.617 0 003.613-3.614V7.47z"/><path fill="url(#lobe-icons-azure-ai-fill-2)" fill-rule="evenodd" d="M16.233 0a.982.982 0 00-.989.989l-.097 18.198A4.814 4.814 0 0110.334 24H1.6a.597.597 0 01-.567-.794l7-19.981A4.819 4.819 0 0112.57 0h3.679-.016z" clip-rule="evenodd"/><defs><linearGradient id="lobe-icons-azure-ai-fill-0" x1="18.242" x2="14.191" y1="16.837" y2=".616" gradientUnits="userSpaceOnUse"><stop stop-color="#712575"/><stop offset=".09" stop-color="#9A2884"/><stop offset=".18" stop-color="#BF2C92"/><stop offset=".27" stop-color="#DA2E9C"/><stop offset=".34" stop-color="#EB30A2"/><stop offset=".4" stop-color="#F131A5"/><stop offset=".5" stop-color="#EC30A3"/><stop offset=".61" stop-color="#DF2F9E"/><stop offset=".72" stop-color="#C92D96"/><stop offset=".83" stop-color="#AA2A8A"/><stop offset=".95" stop-color="#83267C"/><stop offset="1" stop-color="#712575"/></linearGradient><linearGradient id="lobe-icons-azure-ai-fill-1" x1="19.782" x2="19.782" y1=".34" y2="23.222" gradientUnits="userSpaceOnUse"><stop stop-color="#DA7ED0"/><stop offset=".08" stop-color="#B17BD5"/><stop offset=".19" stop-color="#8778DB"/><stop offset=".3" stop-color="#6276E1"/><stop offset=".41" stop-color="#4574E5"/><stop offset=".54" stop-color="#2E72E8"/><stop offset=".67" stop-color="#1D71EB"/><stop offset=".81" stop-color="#1471EC"/><stop offset="1" stop-color="#1171ED"/></linearGradient><linearGradient id="lobe-icons-azure-ai-fill-2" x1="18.404" x2="3.236" y1=".859" y2="25.183" gradientUnits="userSpaceOnUse"><stop stop-color="#DA7ED0"/><stop offset=".05" stop-color="#B77BD4"/><stop offset=".11" stop-color="#9079DA"/><stop offset=".18" stop-color="#6E77DF"/><stop offset=".25" stop-color="#5175E3"/><stop offset=".33" stop-color="#3973E7"/><stop offset=".42" stop-color="#2772E9"/><stop offset=".54" stop-color="#1A71EB"/><stop offset=".68" stop-color="#1371EC"/><stop offset="1" stop-color="#1171ED"/></linearGradient></defs></svg>