<svg xmlns="http://www.w3.org/2000/svg" xmlns:xlink="http://www.w3.org/1999/xlink" width="50" height="40" version="1.1" viewBox="0 -15 40 60"><g id="surface1"><path style="stroke:none;fill-rule:nonzero;fill:#00947d;fill-opacity:1" d="M 27.746094 16.839844 C 30.550781 16.835938 33.253906 17.882812 35.339844 19.777344 L 35.339844 1.835938 C 35.34375 1.402344 35.171875 0.984375 34.867188 0.675781 C 34.566406 0.367188 34.152344 0.195312 33.722656 0.195312 L 1.617188 0.195312 C 0.722656 0.195312 0 0.929688 0 1.835938 L 0 28.503906 C 0 29.414062 0.722656 30.144531 1.617188 30.144531 L 16.484375 30.144531 C 16.398438 29.566406 16.355469 28.984375 16.355469 28.398438 C 16.351562 22.015625 21.457031 16.839844 27.746094 16.839844 Z M 27.746094 16.839844"/><path style="stroke:none;fill-rule:nonzero;fill:#1fc1a7;fill-opacity:1" d="M 10.769531 3.203125 L 2.910156 3.203125 L 2.910156 8.25 L 10.769531 8.25 Z M 10.769531 3.203125"/><path style="stroke:none;fill-rule:nonzero;fill:#61ddc9;fill-opacity:1" d="M 21.578125 3.203125 L 13.714844 3.203125 L 13.714844 8.25 L 21.578125 8.25 Z M 21.578125 3.203125"/><path style="stroke:none;fill-rule:nonzero;fill:#9bfdec;fill-opacity:1" d="M 10.769531 11.199219 L 2.910156 11.199219 L 2.910156 16.25 L 10.769531 16.25 Z M 10.769531 11.199219"/><path style="stroke:none;fill-rule:nonzero;fill:#00b99d;fill-opacity:1" d="M 10.769531 19.199219 L 2.910156 19.199219 L 2.910156 24.171875 L 10.769531 24.171875 Z M 10.769531 19.199219"/><path style="stroke:none;fill-rule:nonzero;fill:#04bca1;fill-opacity:1" d="M 21.578125 11.199219 L 13.714844 11.199219 L 13.714844 16.25 L 21.578125 16.25 Z M 21.578125 11.199219"/><path style="stroke:none;fill-rule:nonzero;fill:#1dc0a7;fill-opacity:1" d="M 32.410156 3.203125 L 24.546875 3.203125 L 24.546875 8.25 L 32.410156 8.25 Z M 32.410156 3.203125"/><path style="stroke:none;fill-rule:nonzero;fill:#00ba9d;fill-opacity:1" d="M 35.339844 28.503906 L 35.339844 19.78125 C 33.253906 17.886719 30.546875 16.839844 27.746094 16.84375 C 21.453125 16.84375 16.347656 22.015625 16.347656 28.402344 C 16.347656 28.996094 16.394531 29.574219 16.476562 30.148438 L 33.722656 30.148438 C 34.617188 30.144531 35.339844 29.410156 35.339844 28.503906 Z M 35.339844 28.503906"/><path style="stroke:none;fill-rule:nonzero;fill:#27cfb2;fill-opacity:1" d="M 35.34375 19.78125 L 35.34375 28.511719 C 35.34375 29.414062 34.617188 30.148438 33.726562 30.152344 L 16.480469 30.152344 C 17.308594 35.703125 22.039062 39.960938 27.746094 39.960938 C 34.042969 39.957031 39.144531 34.785156 39.144531 28.398438 C 39.148438 25.109375 37.765625 21.972656 35.34375 19.78125 Z M 35.34375 19.78125"/><path style="stroke:none;fill-rule:nonzero;fill:#c5fdf4;fill-opacity:1" d="M 33.601562 22.707031 L 26.460938 29.945312 L 22.792969 26.226562 L 20.601562 28.453125 L 24.269531 32.175781 L 26.601562 34.539062 L 28.792969 32.3125 L 35.933594 25.074219 Z M 33.601562 22.707031"/></g></svg>