<svg xmlns="http://www.w3.org/2000/svg" width="595" height="842" fill="none" viewBox="0 0 595 842"><g clip-path="url(#clip0_16602_56581)"><rect width="595" height="842" fill="#6200EA"/><line x1="390.5" x2="390.5" y1="0" y2="842" stroke="#fff" stroke-opacity=".3"/><rect width="179" height="2" x="392" y="36" fill="#FDCA34" transform="rotate(90 392 36)"/><line x1="483.5" x2="483.5" y1="0" y2="842" stroke="#fff" stroke-opacity=".3"/><line x1="298.5" x2="298.5" y1="0" y2="842" stroke="#fff" stroke-opacity=".3"/><line x1="113.5" x2="113.5" y1="0" y2="842" stroke="#fff" stroke-opacity=".3"/><line x1="205.5" x2="205.5" y1="0" y2="842" stroke="#fff" stroke-opacity=".3"/><line x1="575.5" x2="575.5" y1="0" y2="842" stroke="#fff" stroke-opacity=".3"/><line x1="20.5" x2="20.5" y1="1" y2="843" stroke="#fff" stroke-opacity=".3"/><rect width="179" height="2" x="115" y="362" fill="#FDCA34" transform="rotate(90 115 362)"/><rect width="179" height="2" x="207" y="495" fill="#FDCA34" transform="rotate(90 207 495)"/><rect width="179" height="2" x="392" y="625" fill="#FDCA34" transform="rotate(90 392 625)"/><rect width="179" height="2" x="577" y="247" fill="#FDCA34" transform="rotate(90 577 247)"/></g><defs><clipPath id="clip0_16602_56581"><rect width="595" height="842" fill="#fff"/></clipPath></defs></svg>