<svg xmlns="http://www.w3.org/2000/svg" width="24" height="24" fill="none" viewBox="0 0 24 24"><g clip-path="url(#clip0_19978_6313)"><path fill="#0052B4" d="M0 11.9996C0 12.8215 0.082875 13.6241 0.240328 14.3996L12 15.13L23.7597 14.3996C23.9172 13.6241 24 12.8215 24 11.9996C24 11.1776 23.9171 10.375 23.7597 9.59959L12 8.86914L0.240328 9.59959C0.082875 10.375 0 11.1776 0 11.9996Z"/><path fill="#F0F0F0" d="M23.7595 14.3984H0.240112C1.35194 19.8758 6.19436 23.9984 11.9998 23.9984C17.8052 23.9984 22.6476 19.8758 23.7595 14.3984Z"/><path fill="#000" d="M0.240112 9.6H23.7596C22.6476 4.12266 17.8053 0 11.9998 0C6.19427 0 1.35194 4.12266 0.240112 9.6Z"/><path fill="#FFDA44" d="M17.2176 9.59998H6.78284L8.91471 8.59714L7.77945 6.53253L10.0944 6.97527L10.3878 4.63672L12.0002 6.35675L13.6127 4.63672L13.906 6.97527L16.221 6.53253L15.0858 8.59723L17.2176 9.59998Z"/><path fill="#A2001D" d="M0 11.9993C0 18.6266 5.37262 23.9993 12 23.9993L2.39981 4.79883C0.893062 6.80456 0 9.29752 0 11.9993Z"/><path fill="#A2001D" d="M11.9996 23.9993C18.627 23.9993 23.9996 18.6266 23.9996 11.9993C23.9996 9.29752 23.1066 6.80456 21.5998 4.79883L11.9996 23.9993Z"/></g><defs><clipPath id="clip0_19978_6313"><rect width="24" height="24" fill="#fff"/></clipPath></defs></svg>