<svg xmlns="http://www.w3.org/2000/svg" width="24" height="24" fill="none" viewBox="0 0 24 24"><g clip-path="url(#clip0_19978_6329)"><path fill="#0052B4" d="M24.0001 12.0003C24.0001 10.5325 23.7361 9.12639 23.2537 7.82645L12.0001 7.30469L0.746513 7.82641C0.264169 9.12639 0.00012207 10.5325 0.00012207 12.0003C0.00012207 13.4682 0.264169 14.8743 0.746513 16.1742L12.0001 16.696L23.2537 16.1743C23.7361 14.8743 24.0001 13.4682 24.0001 12.0003Z"/><path fill="#FF9811" d="M12.0001 23.9999C17.1596 23.9999 21.5582 20.7434 23.2537 16.1738H0.74646C2.44198 20.7434 6.84049 23.9999 12.0001 23.9999Z"/><path fill="#D80027" d="M0.746338 7.82611H23.2536C21.558 3.2565 17.1595 0 11.9999 0C6.84037 0 2.44185 3.2565 0.746338 7.82611Z"/></g><defs><clipPath id="clip0_19978_6329"><rect width="24" height="24" fill="#fff"/></clipPath></defs></svg>