<svg xmlns="http://www.w3.org/2000/svg" width="24" height="24" fill="none" viewBox="0 0 24 24"><g clip-path="url(#clip0_19978_6358)"><path fill="#FFDA44" d="M12 24C18.6274 24 24 18.6274 24 12C24 5.37258 18.6274 0 12 0C5.37258 0 0 5.37258 0 12C0 18.6274 5.37258 24 12 24Z"/><path fill="#338AF3" d="M7.30559 7.82611H23.2548C21.5593 3.2565 17.1608 0 12.0012 0C8.68747 0 5.68779 1.34339 3.51636 3.51511L7.30559 7.82611Z"/><path fill="#338AF3" d="M7.30462 16.1738H23.2538C21.5584 20.7434 17.1598 23.9999 12.0003 23.9999C8.68649 23.9999 5.68682 22.6566 3.51538 20.4848L7.30462 16.1738Z"/><path fill="#000" d="M3.51447 3.51367C-1.17181 8.19995 -1.17181 15.798 3.51447 20.4843C5.45101 18.5478 7.3135 16.6853 11.9998 11.999L3.51447 3.51367Z"/></g><defs><clipPath id="clip0_19978_6358"><rect width="24" height="24" fill="#fff"/></clipPath></defs></svg>