<svg xmlns="http://www.w3.org/2000/svg" width="24" height="24" fill="none" viewBox="0 0 24 24"><g clip-path="url(#clip0_19978_6397)"><path fill="#0052B4" d="M23.9996 11.9993C23.9996 7.88077 21.9245 4.24734 18.7631 2.08622L11.9996 1.56445L5.23618 2.08617C2.07479 4.24734 -0.000366211 7.88081 -0.000366211 11.9993C-0.000366211 16.1178 2.07479 19.7512 5.23618 21.9123L11.9996 22.4341L18.7631 21.9123C21.9245 19.7512 23.9996 16.1178 23.9996 11.9993Z"/><path fill="#A2001D" d="M18.764 2.08697C16.8381 0.770438 14.5095 0 12.0005 0C9.49162 0 7.16292 0.770438 5.23706 2.08697H18.764Z"/><path fill="#A2001D" d="M5.23633 21.9141C7.16214 23.2306 9.49089 24.001 11.9998 24.001C14.5087 24.001 16.8374 23.2306 18.7632 21.9141H5.23633Z"/><path fill="#F0F0F0" d="M12.0004 17.7381C15.17 17.7381 17.7395 15.1686 17.7395 11.9989C17.7395 8.82927 15.17 6.25977 12.0004 6.25977C8.83073 6.25977 6.26123 8.82927 6.26123 11.9989C6.26123 15.1686 8.83073 17.7381 12.0004 17.7381Z"/><path fill="#6DA544" d="M11.9999 16.696C14.5932 16.696 16.6955 14.5937 16.6955 12.0003C16.6955 9.40701 14.5932 7.30469 11.9999 7.30469C9.40652 7.30469 7.3042 9.40701 7.3042 12.0003C7.3042 14.5937 9.40652 16.696 11.9999 16.696Z"/><path fill="#F0F0F0" d="M11.9996 15.13C13.7285 15.13 15.13 13.7285 15.13 11.9996C15.13 10.2707 13.7285 8.86914 11.9996 8.86914C10.2707 8.86914 8.86914 10.2707 8.86914 11.9996C8.86914 13.7285 10.2707 15.13 11.9996 15.13Z"/><path fill="#0052B4" d="M11.9995 11.2168L10.3038 11.9994V13.3038L11.9995 14.3473L13.6951 13.3038V11.9994L11.9995 11.2168Z"/><path fill="#FFDA44" d="M13.6951 10.4355H10.3038V12.0008H13.6951V10.4355Z"/></g><defs><clipPath id="clip0_19978_6397"><rect width="24" height="24" fill="#fff"/></clipPath></defs></svg>