<svg xmlns="http://www.w3.org/2000/svg" width="24" height="24" fill="none" viewBox="0 0 24 24"><g clip-path="url(#clip0_19978_6842)"><path fill="#FFDA44" d="M12 24C18.6274 24 24 18.6274 24 12C24 5.37258 18.6274 0 12 0C5.37258 0 0 5.37258 0 12C0 18.6274 5.37258 24 12 24Z"/><path fill="#0052B4" d="M11.9999 24.0015C15.9374 24.0015 19.4319 22.105 21.62 19.1758H2.37976C4.56789 22.105 8.06237 24.0015 11.9999 24.0015Z"/><path fill="#0052B4" d="M24 12C24 5.37263 18.6274 0 12 0C5.37262 0 0 5.37263 0 12C0 13.419 0.246984 14.7803 0.699188 16.0439H23.3008C23.753 14.7803 24 13.419 24 12Z"/><path fill="#F0F0F0" d="M8.21371 7.69531L8.8612 9.68806H10.9567L9.26146 10.9198L9.90895 12.9127L8.21371 11.681L6.51848 12.9127L7.16606 10.9198L5.47083 9.68806H7.56623L8.21371 7.69531Z"/><path fill="#F0F0F0" d="M4.61493 5.60938L5.00343 6.80506H6.26075L5.24361 7.5441L5.63211 8.73983L4.61493 8.0008L3.59779 8.73983L3.98633 7.5441L2.96924 6.80506H4.22652L4.61493 5.60938Z"/></g><defs><clipPath id="clip0_19978_6842"><rect width="24" height="24" fill="#fff"/></clipPath></defs></svg>