<svg xmlns="http://www.w3.org/2000/svg" width="24" height="24" fill="none" viewBox="0 0 24 24"><g clip-path="url(#clip0_19978_7477)"><path fill="#338AF3" d="M12 24C18.6274 24 24 18.6274 24 12C24 5.37258 18.6274 0 12 0C5.37258 0 0 5.37258 0 12C0 18.6274 5.37258 24 12 24Z"/><path fill="#F0F0F0" d="M12.0003 5.2168L12.5182 6.81111H14.1947L12.8385 7.79647L13.3565 9.39073L12.0003 8.40542L10.644 9.39073L11.1621 7.79647L9.80591 6.81111H11.4823L12.0003 5.2168Z"/><path fill="#F0F0F0" d="M5.21741 11.9992L6.81172 11.4811V9.80469L7.79708 11.161L9.39135 10.643L8.40603 11.9992L9.39135 13.3553L7.79708 12.8372L6.81172 14.1935V12.5171L5.21741 11.9992Z"/><path fill="#F0F0F0" d="M12.0004 18.7833L11.4823 17.189H9.80591L11.1622 16.2036L10.6442 14.6094L12.0004 15.5947L13.3565 14.6094L12.8384 16.2036L14.1947 17.189H12.5183L12.0004 18.7833Z"/><path fill="#F0F0F0" d="M18.7829 11.999L17.1886 12.5171V14.1935L16.2033 12.8372L14.609 13.3552L15.5943 11.999L14.609 10.6429L16.2033 11.161L17.1886 9.80469V11.4811L18.7829 11.999Z"/></g><defs><clipPath id="clip0_19978_7477"><rect width="24" height="24" fill="#fff"/></clipPath></defs></svg>