<svg xmlns="http://www.w3.org/2000/svg" width="24" height="24" fill="none" viewBox="0 0 24 24"><g clip-path="url(#clip0_19978_7186)"><path fill="#F0F0F0" d="M0.746024 7.82473C0.263681 9.12476 -0.000366211 10.5308 -0.000366211 11.9986C-0.000366211 13.4665 0.263681 14.8726 0.746024 16.1725L11.9996 17.216L23.2532 16.1725C23.7356 14.8726 23.9996 13.4665 23.9996 11.9986C23.9996 10.5308 23.7356 9.12476 23.2532 7.82473L11.9996 6.78125L0.746024 7.82473Z"/><path fill="#D80027" d="M12.0004 0C6.84086 0 2.44229 3.2565 0.746826 7.82611H23.2541C21.5585 3.2565 17.16 0 12.0004 0Z"/><path fill="#6DA544" d="M12.0004 23.9999C17.16 23.9999 21.5585 20.7434 23.254 16.1738H0.746826C2.44229 20.7434 6.84086 23.9999 12.0004 23.9999Z"/></g><defs><clipPath id="clip0_19978_7186"><rect width="24" height="24" fill="#fff"/></clipPath></defs></svg>