<svg xmlns="http://www.w3.org/2000/svg" width="24" height="24" fill="none" viewBox="0 0 24 24"><g clip-path="url(#clip0_19978_7227)"><path fill="#F0F0F0" d="M12 24C18.6274 24 24 18.6274 24 12C24 5.37258 18.6274 0 12 0C5.37258 0 0 5.37258 0 12C0 18.6274 5.37258 24 12 24Z"/><path fill="#FF9811" d="M23.9996 11.9997C23.9996 6.84013 20.7431 2.44156 16.1735 0.746094V23.2534C20.7431 21.5578 23.9996 17.1593 23.9996 11.9997Z"/><path fill="#6DA544" d="M0 11.9997C0 17.1593 3.2565 21.5578 7.82611 23.2533V0.746094C3.2565 2.44156 0 6.84013 0 11.9997Z"/></g><defs><clipPath id="clip0_19978_7227"><rect width="24" height="24" fill="#fff"/></clipPath></defs></svg>