<svg xmlns="http://www.w3.org/2000/svg" width="24" height="24" fill="none" viewBox="0 0 24 24"><g clip-path="url(#clip0_19978_7400)"><path fill="#F0F0F0" d="M12 24C18.6274 24 24 18.6274 24 12C24 5.37258 18.6274 0 12 0C5.37258 0 0 5.37258 0 12C0 18.6274 5.37258 24 12 24Z"/><path fill="#6DA544" d="M7.82629 12.0002V23.2538C9.12623 23.7362 10.5323 24.0002 12.0002 24.0002C18.6276 24.0002 24.0002 18.6276 24.0002 12.0002C24.0002 5.37281 7.82629 12.0002 7.82629 12.0002Z"/><path fill="#D80027" d="M12.0002 0C10.5323 0 9.12623 0.264047 7.82629 0.746391V12C7.82629 12 18.4698 12 24.0002 12C24.0002 5.37262 18.6276 0 12.0002 0Z"/></g><defs><clipPath id="clip0_19978_7400"><rect width="24" height="24" fill="#fff"/></clipPath></defs></svg>