<svg xmlns="http://www.w3.org/2000/svg" width="24" height="24" fill="none" viewBox="0 0 24 24"><g clip-path="url(#clip0_19978_7457)"><path fill="#496E2D" d="M12 24C18.6274 24 24 18.6274 24 12C24 5.37258 18.6274 0 12 0C5.37258 0 0 5.37258 0 12C0 18.6274 5.37258 24 12 24Z"/><path fill="#FFDA44" d="M11.9997 13.8635C10.0016 13.8635 8.33238 12.4593 7.92284 10.584C7.85993 10.8723 7.82581 11.1712 7.82581 11.4785C7.82581 13.7837 9.69448 15.6523 11.9997 15.6523C14.3049 15.6523 16.1736 13.7837 16.1736 11.4785C16.1736 11.1712 16.1395 10.8723 16.0766 10.584C15.667 12.4593 13.9978 13.8635 11.9997 13.8635Z"/><path fill="#FFDA44" d="M11.9999 8.34766L12.3884 9.54339H13.6457L12.6285 10.2824L13.017 11.4781L11.9999 10.7391L10.9827 11.4781L11.3713 10.2824L10.3541 9.54339H11.6114L11.9999 8.34766Z"/></g><defs><clipPath id="clip0_19978_7457"><rect width="24" height="24" fill="#fff"/></clipPath></defs></svg>