<svg xmlns="http://www.w3.org/2000/svg" width="24" height="24" fill="none" viewBox="0 0 24 24"><g clip-path="url(#clip0_19978_7608)"><path fill="#F0F0F0" d="M1.19035 6.78177C0.427509 8.35939 -0.000366211 10.1293 -0.000366211 11.9991C-0.000366211 13.869 0.427509 15.6389 1.19035 17.2165L11.9996 18.26L22.8089 17.2165C23.5718 15.6389 23.9996 13.869 23.9996 11.9991C23.9996 10.1293 23.5718 8.35939 22.8089 6.78177L11.9996 5.73828L1.19035 6.78177Z"/><path fill="#6DA544" d="M1.19092 17.2188C3.13182 21.2327 7.24225 24.0014 11.9998 24.0014C16.7573 24.0014 20.8677 21.2327 22.8086 17.2188H1.19092Z"/><path fill="#FF9811" d="M1.19092 6.78262H22.8086C20.8677 2.76867 16.7573 0 11.9998 0C7.24229 0 3.13182 2.76867 1.19092 6.78262Z"/><path fill="#FF9811" d="M11.9999 16.174C14.3051 16.174 16.1738 14.3052 16.1738 12.0001C16.1738 9.69489 14.3051 7.82617 11.9999 7.82617C9.69476 7.82617 7.82605 9.69489 7.82605 12.0001C7.82605 14.3052 9.69476 16.174 11.9999 16.174Z"/></g><defs><clipPath id="clip0_19978_7608"><rect width="24" height="24" fill="#fff"/></clipPath></defs></svg>