<svg xmlns="http://www.w3.org/2000/svg" width="24" height="24" fill="none" viewBox="0 0 24 24"><g clip-path="url(#clip0_19978_8085)"><path fill="#FFDA44" d="M12 24C18.6274 24 24 18.6274 24 12C24 5.37258 18.6274 0 12 0C5.37258 0 0 5.37258 0 12C0 18.6274 5.37258 24 12 24Z"/><path fill="#0052B4" d="M9.39092 10.4348H23.898C23.131 4.54697 18.0964 0 11.9996 0C11.1036 0 10.2308 0.0990469 9.39087 0.285234V10.4348H9.39092Z"/><path fill="#0052B4" d="M6.26085 10.4347V1.45898C2.96581 3.25683 0.607016 6.55453 0.101562 10.4347H6.26085V10.4347Z"/><path fill="#0052B4" d="M6.2608 13.5645H0.101562C0.607016 17.4446 2.96581 20.7423 6.26085 22.5401L6.2608 13.5645Z"/><path fill="#0052B4" d="M9.39087 13.5645V23.714C10.2308 23.9002 11.1036 23.9993 11.9996 23.9993C18.0964 23.9993 23.131 19.4523 23.898 13.5645H9.39087V13.5645Z"/></g><defs><clipPath id="clip0_19978_8085"><rect width="24" height="24" fill="#fff"/></clipPath></defs></svg>