<svg xmlns="http://www.w3.org/2000/svg" width="24" height="24" fill="none" viewBox="0 0 24 24"><g clip-path="url(#clip0_19978_7832)"><path fill="#F0F0F0" d="M12 24C18.6274 24 24 18.6274 24 12C24 5.37258 18.6274 0 12 0C5.37258 0 0 5.37258 0 12C0 18.6274 5.37258 24 12 24Z"/><path fill="#0052B4" d="M12 0C7.24242 0 3.13167 2.76867 1.19067 6.78262H22.8092C20.8682 2.76867 16.7574 0 12 0Z"/><path fill="#0052B4" d="M12 23.9994C16.7574 23.9994 20.8682 21.2308 22.8092 17.2168H1.19067C3.13167 21.2308 7.24242 23.9994 12 23.9994Z"/><path fill="#FFDA44" d="M9.58984 12.5215L11.9997 8.34766L14.4095 12.5215H9.58984Z"/><path fill="#6DA544" d="M15.1303 13.8994L11.9998 15.4647L8.86938 13.8994V11.8125H15.1303V13.8994Z"/><path fill="#FFDA44" d="M14.9517 8.52734L13.8449 9.63411C14.317 10.1062 14.609 10.7584 14.609 11.4787C14.609 12.9195 13.441 14.0874 12.0003 14.0874C10.5596 14.0874 9.39162 12.9194 9.39162 11.4787C9.39162 10.7584 9.68365 10.1062 10.1557 9.63411L9.04896 8.52734C8.29357 9.28259 7.82642 10.3261 7.82642 11.4787C7.82642 13.784 9.69514 15.6526 12.0003 15.6526C14.3055 15.6526 16.1742 13.7839 16.1742 11.4787C16.1742 10.3261 15.707 9.28259 14.9517 8.52734Z"/></g><defs><clipPath id="clip0_19978_7832"><rect width="24" height="24" fill="#fff"/></clipPath></defs></svg>